<svg xmlns="http://www.w3.org/2000/svg" version="1.1" xmlns:xlink="http://www.w3.org/1999/xlink" xmlns:svgjs="http://svgjs.com/svgjs" id="svg-pattern-573" width="100%" height="100%"><defs><pattern x="0" y="0" width="86.5" height="49.75" patternUnits="userSpaceOnUse" id="pattern-573-layer-1"><g id="PatternRootContent1" transform="scale(0.25)"><rect class="fill0" width="346" height="199" fill="#cc8454"></rect>
<path class="fill1" d="M307.04,104.2H346v-9.4h-38.96L346,72.32V60.76l-21.98-12.68L346,10V0H0v10l21.98,38.08L0,60.76v11.56
	L38.96,94.8H0v9.4h38.96L0,126.7v11.54l21.98,12.7L0,189v10h346v-10l-21.98-38.06l21.98-12.7V126.7L307.04,104.2z M336,66.54
	l-33.96,19.6l16.98-29.4L336,66.54z M293.38,5h43.96l-21.98,38.08l-21.98-12.7V5z M293.38,41.94l16.98,9.8l-16.98,29.4V41.94z
	 M293.38,117.86l16.98,29.42l-16.98,9.8V117.86z M235.62,18.36l38.96,67.48l-38.96-22.5V18.36z M235.62,74.9l33.96,19.6h-33.96V74.9
	z M235.62,104.5h33.96l-33.96,19.62V104.5z M151.02,51.44L173,38.74l21.98,12.7L173,89.5L151.02,51.44z M194.98,147.58L173,160.26
	l-21.98-12.68L173,109.5L194.98,147.58z M183,32.96l33.96-19.6l-16.98,29.42L183,32.96z M211.96,4.7L173,27.2L134.04,4.7H211.96z
	 M163,32.96l-16.98,9.82l-16.98-29.42L163,32.96z M120.38,18.36l16.98,29.42l-16.98,9.8V18.36z M120.38,69.12l21.98-12.68
	l21.98,38.06h-43.96V69.12z M120.38,104.5h43.96l-21.98,38.08l-21.98-12.7V104.5z M62.62,5h33.96L62.62,24.62V5z M62.62,36.16
	l38.96-22.5L62.62,81.14V36.16z M10,66.54l16.98-9.8l16.98,29.4L10,66.54z M10,132.46l33.96-19.6l-16.98,29.42L10,132.46z
	 M52.62,194H8.66l21.98-38.06l21.98,12.68V194z M52.62,157.08l-16.98-9.8l16.98-29.42V157.08z M52.62,81.14l-16.98-29.4l16.98-9.8
	V81.14z M52.62,30.38l-21.98,12.7L8.66,5h43.96V30.38z M62.62,194v-19.6L96.58,194H62.62z M62.62,162.84v-44.98l38.96,67.48
	L62.62,162.84z M110.38,180.64l-38.96-67.48l38.96,22.5V180.64z M110.38,124.12L76.42,104.5h33.96V124.12z M110.38,94.5H76.42
	l33.96-19.6V94.5z M110.38,63.34l-38.96,22.5l38.96-67.48V63.34z M120.38,141.44l16.98,9.8l-16.98,29.4V141.44z M146.02,156.24
	l16.98,9.8l-33.96,19.6L146.02,156.24z M134.04,194.3L173,171.82l38.96,22.48H134.04z M183,166.04l16.98-9.8l16.98,29.4L183,166.04z
	 M225.62,180.64l-16.98-29.4l16.98-9.8V180.64z M225.62,129.88l-21.98,12.7l-21.98-38.08h43.96V129.88z M225.62,94.5h-43.96
	l21.98-38.06l21.98,12.68V94.5z M225.62,57.58l-16.98-9.8l16.98-29.42V57.58z M235.62,135.66l38.96-22.5l-38.96,67.48V135.66z
	 M283.38,194h-33.96l33.96-19.6V194z M283.38,162.84l-38.96,22.5l38.96-67.48V162.84z M283.38,81.14l-38.96-67.48l38.96,22.5V81.14z
	 M283.38,24.62L249.42,5h33.96V24.62z M337.34,194h-43.96v-25.38l21.98-12.68L337.34,194z M319.02,142.28l-16.98-29.42l33.96,19.6
	L319.02,142.28z" fill="#901818"></path>
</g></pattern></defs><rect width="100%" height="100%" id="RctSolidBackground1" fill="url(#pattern-573-layer-1)"></rect></svg>